<?xml version="1.0" encoding="utf-8"?>
<!-- Generator: Adobe Illustrator 16.0.0, SVG Export Plug-In . SVG Version: 6.00 Build 0)  -->
<!DOCTYPE svg PUBLIC "-//W3C//DTD SVG 1.1//EN" "http://www.w3.org/Graphics/SVG/1.1/DTD/svg11.dtd">
<svg version="1.1" id="Layer_1" xmlns="http://www.w3.org/2000/svg" xmlns:xlink="http://www.w3.org/1999/xlink" x="0px" y="0px"
	 width="794.708px" height="257.501px" viewBox="0 0 794.708 257.501" enable-background="new 0 0 794.708 257.501"
	 xml:space="preserve">
<g>
	<path fill="#681519" d="M24.857,26.05c-1.872-1.56-4.264-2.6-6.76-2.6c-1.872,0-4.368,1.092-4.368,3.276
		c0,2.288,2.756,3.172,4.524,3.744l2.601,0.78c5.46,1.612,9.672,4.368,9.672,10.712c0,3.9-0.936,7.904-4.056,10.557
		c-3.068,2.601-7.177,3.692-11.129,3.692c-4.94,0-9.776-1.664-13.78-4.472l4.368-8.217c2.548,2.236,5.564,4.057,9.048,4.057
		c2.392,0,4.94-1.196,4.94-3.953c0-2.859-4.004-3.848-6.188-4.472C7.333,37.334,3.12,35.67,3.12,28.079
		c0-7.957,5.668-13.157,13.521-13.157c3.952,0,8.789,1.248,12.272,3.224L24.857,26.05z"/>
	<path fill="#681519" d="M49.14,24.594v6.552h11.492v8.632H49.14v6.76h12.116v8.633H38.948V15.962h22.309v8.632H49.14z M47.58,12.01
		l-4.212-3.068L50.7-0.002l5.772,4.16L47.58,12.01z"/>
	<path fill="#681519" d="M126.568,15.962v22.049c0,5.044-0.208,10.036-4.108,13.832c-3.276,3.225-8.424,4.368-13,4.368
		s-9.725-1.144-13.001-4.368c-3.9-3.796-4.108-8.788-4.108-13.832V15.962h10.192v20.645c0,5.096,0.364,10.66,6.917,10.66
		c6.552,0,6.916-5.564,6.916-10.66V15.962H126.568z"/>
	<path fill="#681519" d="M136.603,15.962h10.192l18.668,23.973h0.104V15.962h10.192v39.209h-10.192l-18.669-24.025h-0.104v24.025
		h-10.192V15.962z"/>
	<path fill="#681519" d="M227.396,34.838c0,12.688-9.101,21.633-21.685,21.633c-12.585,0-21.685-8.944-21.685-21.633
		c0-11.856,10.4-20.177,21.685-20.177C216.996,14.662,227.396,22.982,227.396,34.838z M194.635,34.891
		c0,6.76,4.992,11.701,11.077,11.701c6.084,0,11.076-4.94,11.076-11.701c0-5.408-4.992-10.348-11.076-10.348
		C199.627,24.542,194.635,29.482,194.635,34.891z"/>
	<path fill="#681519" d="M257.138,15.962h14.457c10.92,0,19.917,8.581,19.917,19.605s-9.049,19.604-19.917,19.604h-14.457V15.962z
		 M267.33,46.539h2.288c6.084,0,11.285-3.328,11.285-10.972c0-7.021-4.628-10.973-11.181-10.973h-2.392V46.539z"/>
	<path fill="#681519" d="M310.022,24.594v6.552h11.492v8.632h-11.492v6.76h12.116v8.633H299.83V15.962h22.309v8.632H310.022z"/>
	<path fill="#681519" d="M363.632,46.539h12.221v8.633H353.44V15.962h10.192V46.539z"/>
	<path fill="#681519" d="M424.162,34.838c0,12.688-9.101,21.633-21.685,21.633c-12.585,0-21.685-8.944-21.685-21.633
		c0-11.856,10.4-20.177,21.685-20.177C413.761,14.662,424.162,22.982,424.162,34.838z M391.4,34.891
		c0,6.76,4.992,11.701,11.077,11.701c6.084,0,11.076-4.94,11.076-11.701c0-5.408-4.992-10.348-11.076-10.348
		C396.393,24.542,391.4,29.482,391.4,34.891z"/>
	<path fill="#681519" d="M454.008,26.05c-1.872-1.56-4.264-2.6-6.76-2.6c-1.873,0-4.369,1.092-4.369,3.276
		c0,2.288,2.757,3.172,4.524,3.744l2.601,0.78c5.46,1.612,9.672,4.368,9.672,10.712c0,3.9-0.936,7.904-4.056,10.557
		c-3.068,2.601-7.177,3.692-11.129,3.692c-4.94,0-9.776-1.664-13.78-4.472l4.368-8.217c2.548,2.236,5.564,4.057,9.048,4.057
		c2.393,0,4.94-1.196,4.94-3.953c0-2.859-4.004-3.848-6.188-4.472c-6.396-1.82-10.607-3.484-10.607-11.076
		c0-7.957,5.668-13.157,13.52-13.157c3.953,0,8.789,1.248,12.273,3.224L454.008,26.05z"/>
	<path fill="#681519" d="M489.523,15.962h15.601c8.424,0,14.248,3.9,14.248,12.896c0,9.256-4.992,13.313-13.884,13.313h-5.772v13
		h-10.192V15.962z M499.715,33.955h1.716c3.692,0,7.333,0,7.333-4.784c0-4.94-3.381-4.992-7.333-4.992h-1.716V33.955z"/>
	<path fill="#681519" d="M560.087,55.171h-12.688l-9.62-15.08h-0.104v15.08h-10.191V15.962h15.236
		c7.748,0,13.624,3.692,13.624,12.064c0,5.408-3.016,10.088-8.58,11.077L560.087,55.171z M537.674,33.539h0.988
		c3.328,0,7.072-0.624,7.072-4.888s-3.744-4.888-7.072-4.888h-0.988V33.539z"/>
	<path fill="#681519" d="M576.623,55.171H566.43V15.962h10.192V55.171z"/>
	<path fill="#681519" d="M591.182,15.962h10.036l7.956,20.957l8.425-20.957h10.14l5.929,39.209h-10.192l-2.86-22.569h-0.104
		l-9.413,22.569h-4.056l-8.996-22.569h-0.104l-3.275,22.569h-10.141L591.182,15.962z"/>
	<path fill="#681519" d="M651.761,24.594v6.552h11.492v8.632h-11.492v6.76h12.116v8.633h-22.309V15.962h22.309v8.632H651.761z"/>
	<path fill="#681519" d="M706.362,55.171h-12.688l-9.62-15.08h-0.104v15.08h-10.192V15.962h15.236
		c7.748,0,13.625,3.692,13.625,12.064c0,5.408-3.017,10.088-8.58,11.077L706.362,55.171z M683.949,33.539h0.988
		c3.328,0,7.072-0.624,7.072-4.888s-3.744-4.888-7.072-4.888h-0.988V33.539z"/>
	<path fill="#681519" d="M754.097,34.838c0,12.688-9.101,21.633-21.685,21.633c-12.585,0-21.686-8.944-21.686-21.633
		c0-11.856,10.4-20.177,21.686-20.177C743.697,14.662,754.097,22.982,754.097,34.838z M721.336,34.891
		c0,6.76,4.992,11.701,11.076,11.701s11.076-4.94,11.076-11.701c0-5.408-4.992-10.348-11.076-10.348S721.336,29.482,721.336,34.891z
		"/>
	<path fill="#681519" d="M783.944,26.05c-1.871-1.56-4.264-2.6-6.76-2.6c-1.872,0-4.368,1.092-4.368,3.276
		c0,2.288,2.756,3.172,4.524,3.744l2.6,0.78c5.461,1.612,9.673,4.368,9.673,10.712c0,3.9-0.937,7.904-4.057,10.557
		c-3.067,2.601-7.176,3.692-11.128,3.692c-4.94,0-9.776-1.664-13.781-4.472l4.369-8.217c2.548,2.236,5.563,4.057,9.048,4.057
		c2.392,0,4.94-1.196,4.94-3.953c0-2.859-4.004-3.848-6.188-4.472c-6.396-1.82-10.608-3.484-10.608-11.076
		c0-7.957,5.668-13.157,13.521-13.157c3.952,0,8.788,1.248,12.272,3.224L783.944,26.05z"/>
	<path fill="#681519" d="M16.123,79.656l-0.52,3.439l2.479-0.2c6.159-0.48,10.678,4.559,10.678,10.798
		c0,3.159-1.4,6.119-3.879,8.159c-2.399,1.919-5.799,2.52-8.798,2.52c-3.439,0-6.919-0.84-9.838-2.72l1.16-7.399
		c2.319,2.08,5.279,3.479,8.398,3.479c2.479,0,4.799-1.8,4.799-4.438c0-3.64-3.479-5.159-6.599-5.159c-2,0-3.959,0.399-5.759,1.239
		l2.64-16.357h15.677v6.64H16.123z"/>
	<path fill="#681519" d="M45.522,99.292c0,2.56-2.08,4.679-4.679,4.679s-4.679-2.119-4.679-4.679c0-2.6,2.08-4.68,4.679-4.68
		S45.522,96.693,45.522,99.292z"/>
	<path fill="#681519" d="M76.639,88.094c0,7.838-3.799,16.277-12.798,16.277s-12.798-8.439-12.798-16.277
		c0-7.839,3.839-16.277,12.798-16.277S76.639,80.255,76.639,88.094z M58.842,88.054c0,2.919,0.959,9.398,4.999,9.398
		c4.039,0,4.999-6.479,4.999-9.398c0-2.92-0.96-9.318-4.999-9.318C59.802,78.736,58.842,85.134,58.842,88.054z"/>
	<path fill="#681519" d="M106.519,88.094c0,7.838-3.799,16.277-12.798,16.277s-12.798-8.439-12.798-16.277
		c0-7.839,3.839-16.277,12.798-16.277S106.519,80.255,106.519,88.094z M88.722,88.054c0,2.919,0.959,9.398,4.999,9.398
		c4.039,0,4.999-6.479,4.999-9.398c0-2.92-0.96-9.318-4.999-9.318C89.682,78.736,88.722,85.134,88.722,88.054z"/>
	<path fill="#681519" d="M136.398,88.094c0,7.838-3.799,16.277-12.798,16.277s-12.798-8.439-12.798-16.277
		c0-7.839,3.839-16.277,12.798-16.277S136.398,80.255,136.398,88.094z M118.602,88.054c0,2.919,0.959,9.398,4.999,9.398
		c4.039,0,4.999-6.479,4.999-9.398c0-2.92-0.96-9.318-4.999-9.318C119.561,78.736,118.602,85.134,118.602,88.054z"/>
	<path fill="#681519" d="M180.038,83.134c-1.6-2.159-4.199-3.319-6.878-3.319c-4.799,0-8.039,3.68-8.039,8.359
		c0,4.759,3.28,8.198,8.159,8.198c2.56,0,5.119-1.24,6.759-3.199v9.398c-2.599,0.8-4.479,1.399-6.918,1.399
		c-4.199,0-8.199-1.6-11.318-4.439c-3.319-2.999-4.839-6.919-4.839-11.397c0-4.12,1.56-8.079,4.439-11.038
		c2.959-3.04,7.239-4.88,11.478-4.88c2.52,0,4.839,0.561,7.159,1.52V83.134z"/>
	<path fill="#681519" d="M219.155,87.534c0,9.759-6.999,16.638-16.677,16.638c-9.678,0-16.677-6.879-16.677-16.638
		c0-9.118,7.999-15.517,16.677-15.517C211.157,72.017,219.155,78.416,219.155,87.534z M193.959,87.574
		c0,5.199,3.839,8.999,8.519,8.999c4.68,0,8.519-3.8,8.519-8.999c0-4.159-3.839-7.958-8.519-7.958
		C197.799,79.616,193.959,83.415,193.959,87.574z"/>
	<path fill="#681519" d="M233.08,96.533h9.398v6.639h-17.237V73.016h7.839V96.533z"/>
	<path fill="#681519" d="M279.315,87.534c0,9.759-6.999,16.638-16.677,16.638c-9.678,0-16.677-6.879-16.677-16.638
		c0-9.118,7.999-15.517,16.677-15.517C271.316,72.017,279.315,78.416,279.315,87.534z M254.119,87.574
		c0,5.199,3.839,8.999,8.519,8.999s8.519-3.8,8.519-8.999c0-4.159-3.84-7.958-8.519-7.958S254.119,83.415,254.119,87.574z"/>
	<path fill="#681519" d="M288.72,73.016h7.719l6.119,16.117l6.479-16.117h7.798l4.56,30.155h-7.839l-2.2-17.357h-0.08l-7.239,17.357
		h-3.119l-6.919-17.357h-0.08l-2.52,17.357h-7.799L288.72,73.016z"/>
	<path fill="#681519" d="M327.16,103.171V73.016h11.198c5.359,0,8.958,2.08,8.958,7.839c0,2.72-0.88,4.919-3.319,6.159v0.08
		c4.319,0.56,6.159,3.479,6.159,7.679c0,6.318-5.399,8.398-10.918,8.398H327.16z M334.999,84.854h0.88
		c2.08,0,4.239-0.359,4.239-2.919c0-2.76-2.44-2.92-4.56-2.92h-0.56V84.854z M334.999,97.172h1c2.32,0,6.239,0.12,6.239-3.199
		c0-3.64-3.879-3.279-6.439-3.279h-0.8V97.172z"/>
	<path fill="#681519" d="M364.518,103.171h-7.839V73.016h7.839V103.171z"/>
	<path fill="#681519" d="M379.757,97.932l-2.08,5.239h-8.319l11.598-30.155h8.559l11.358,30.155h-8.358l-1.959-5.239H379.757z
		 M385.236,82.334h-0.08l-3.239,9.599h6.519L385.236,82.334z"/>
	<path fill="#681519" d="M405.758,73.016h7.839l14.357,18.438h0.08V73.016h7.839v30.155h-7.839l-14.358-18.477h-0.079v18.477h-7.839
		V73.016z"/>
	<path fill="#681519" d="M475.273,87.534c0,9.759-6.999,16.638-16.677,16.638c-9.679,0-16.678-6.879-16.678-16.638
		c0-9.118,7.999-15.517,16.678-15.517C467.274,72.017,475.273,78.416,475.273,87.534z M450.077,87.574
		c0,5.199,3.84,8.999,8.52,8.999c4.679,0,8.519-3.8,8.519-8.999c0-4.159-3.84-7.958-8.519-7.958
		C453.917,79.616,450.077,83.415,450.077,87.574z"/>
	<path fill="#681519" d="M497.915,80.775c-1.439-1.199-3.279-1.999-5.199-1.999c-1.439,0-3.359,0.84-3.359,2.52
		c0,1.76,2.12,2.439,3.48,2.879l1.999,0.601c4.2,1.239,7.438,3.359,7.438,8.238c0,2.999-0.719,6.079-3.119,8.118
		c-2.359,2-5.52,2.84-8.559,2.84c-3.799,0-7.519-1.279-10.598-3.439l3.359-6.319c1.959,1.72,4.279,3.12,6.959,3.12
		c1.84,0,3.799-0.92,3.799-3.04c0-2.199-3.08-2.959-4.76-3.439c-4.918-1.399-8.158-2.679-8.158-8.519
		c0-6.118,4.359-10.118,10.398-10.118c3.039,0,6.759,0.96,9.438,2.479L497.915,80.775z"/>
	<path fill="#681519" d="M532.436,79.656v5.039h8.838v6.639h-8.838v5.199h9.318v6.639h-17.157V73.016h17.157v6.64H532.436z"/>
	<path fill="#681519" d="M549.037,73.016h7.839l14.357,18.438h0.08V73.016h7.838v30.155h-7.838l-14.357-18.477h-0.08v18.477h-7.839
		V73.016z"/>
	<path fill="#681519" d="M602.876,73.016h11.998c6.479,0,10.958,3,10.958,9.919c0,7.118-3.84,10.238-10.678,10.238h-4.439v9.998
		h-7.839V73.016z M610.715,86.854h1.32c2.839,0,5.639,0,5.639-3.68c0-3.799-2.6-3.839-5.639-3.839h-1.32V86.854z"/>
	<path fill="#681519" d="M656.832,103.171h-9.759l-7.398-11.598h-0.08v11.598h-7.838V73.016h11.718
		c5.959,0,10.478,2.84,10.478,9.278c0,4.16-2.319,7.759-6.599,8.519L656.832,103.171z M639.594,86.535h0.76
		c2.561,0,5.439-0.48,5.439-3.76s-2.879-3.76-5.439-3.76h-0.76V86.535z"/>
	<path fill="#681519" d="M693.231,87.534c0,9.759-6.999,16.638-16.678,16.638c-9.678,0-16.677-6.879-16.677-16.638
		c0-9.118,7.999-15.517,16.677-15.517C685.232,72.017,693.231,78.416,693.231,87.534z M668.035,87.574
		c0,5.199,3.839,8.999,8.519,8.999s8.519-3.8,8.519-8.999c0-4.159-3.839-7.958-8.519-7.958S668.035,83.415,668.035,87.574z"/>
	<path fill="#681519" d="M699.315,103.171V73.016h11.199c5.358,0,8.958,2.08,8.958,7.839c0,2.72-0.88,4.919-3.319,6.159v0.08
		c4.318,0.56,6.158,3.479,6.158,7.679c0,6.318-5.398,8.398-10.918,8.398H699.315z M707.155,84.854h0.879
		c2.08,0,4.24-0.359,4.24-2.919c0-2.76-2.44-2.92-4.561-2.92h-0.559V84.854z M707.155,97.172h0.999c2.319,0,6.239,0.12,6.239-3.199
		c0-3.64-3.879-3.279-6.439-3.279h-0.799V97.172z"/>
	<path fill="#681519" d="M736.514,97.932l-2.08,5.239h-8.318l11.598-30.155h8.559l11.358,30.155h-8.358l-1.96-5.239H736.514z
		 M741.993,82.334h-0.08l-3.239,9.599h6.519L741.993,82.334z"/>
	<path fill="#681519" d="M787.59,103.171h-9.758l-7.399-11.598h-0.079v11.598h-7.84V73.016h11.719c5.959,0,10.479,2.84,10.479,9.278
		c0,4.16-2.32,7.759-6.6,8.519L787.59,103.171z M770.354,86.535h0.76c2.559,0,5.438-0.48,5.438-3.76s-2.88-3.76-5.438-3.76h-0.76
		V86.535z"/>
	<path fill="#681519" d="M5.853,116.302h15.382v3.846H9.723v7.423h11.341v3.432H9.723v10.514h11.512v3.846H5.926L5.853,116.302z"/>
	<path fill="#681519" d="M28.314,116.302v25.214h8.81v3.846H24.371v-29.06H28.314z"/>
	<path fill="#681519" d="M73.409,116.302h3.943v29.936l-21.831-21.636v20.76h-3.991v-30.033l21.879,21.49V116.302z"/>
	<path fill="#681519" d="M102.123,116.302V135.7c0,5.671-4.259,10.271-10.441,10.246c-7.496-0.049-10.757-5.476-10.757-10.319
		v-19.324h3.87v18.448c0,5.403,2.774,7.374,6.668,7.447c4.113,0.049,6.791-2.02,6.791-8.202v-17.693H102.123z"/>
	<path fill="#681519" d="M106.67,116.302h15.382v3.846h-11.512v7.423h11.341v3.432h-11.341v10.514h11.512v3.846h-15.309
		L106.67,116.302z"/>
	<path fill="#681519" d="M136.969,136.698l8.25-20.396h4.21l-12.437,30.252l-12.631-30.252h4.332L136.969,136.698z"/>
	<path fill="#681519" d="M182.866,131.051c-0.024,8.323-7.009,15.065-15.333,15.041c-8.202-0.024-15.406-6.475-15.235-14.749
		c0.17-8.299,5.16-14.895,14.846-15.431C175.759,115.451,182.89,122.582,182.866,131.051z M156.021,131.343
		c0.17,6.255,5.476,11.22,11.707,11.025c6.157-0.171,11.074-5.258,11.025-11.415c-0.024-6.206-5.111-11.414-11.317-11.341
		C161.083,119.709,155.826,124.991,156.021,131.343z"/>
	<path fill="#681519" d="M201.186,116.125h7.477l5.927,15.613l6.276-15.613h7.555l4.417,29.212h-7.593l-2.131-16.814h-0.078
		l-7.012,16.814h-3.022l-6.702-16.814h-0.078l-2.44,16.814h-7.555L201.186,116.125z"/>
	<path fill="#681519" d="M243.303,140.262l-2.015,5.075h-8.058l11.235-29.212h8.291l11.003,29.212h-8.097l-1.898-5.075H243.303z
		 M248.611,125.153h-0.078l-3.138,9.298h6.315L248.611,125.153z"/>
	<path fill="#681519" d="M295.067,129.027c-0.078,4.262-0.388,7.903-2.983,11.545c-2.867,3.991-7.167,5.734-12.049,5.734
		c-9.182,0-15.574-6.237-15.574-15.42c0-9.491,6.431-15.729,15.846-15.729c6.005,0,10.654,2.712,13.172,8.174l-7.206,3.022
		c-1.046-2.79-3.254-4.649-6.315-4.649c-4.998,0-7.593,4.766-7.593,9.221c0,4.533,2.712,9.144,7.709,9.144
		c3.293,0,5.812-1.705,6.122-5.075h-6.199v-5.967H295.067z"/>
	<path fill="#681519" d="M327.498,129.027c-0.077,4.262-0.387,7.903-2.983,11.545c-2.867,3.991-7.167,5.734-12.049,5.734
		c-9.182,0-15.574-6.237-15.574-15.42c0-9.491,6.431-15.729,15.846-15.729c6.005,0,10.654,2.712,13.172,8.174l-7.206,3.022
		c-1.046-2.79-3.254-4.649-6.315-4.649c-4.998,0-7.593,4.766-7.593,9.221c0,4.533,2.712,9.144,7.709,9.144
		c3.293,0,5.812-1.705,6.122-5.075h-6.199v-5.967H327.498z"/>
	<path fill="#681519" d="M338.389,145.337h-7.593v-29.212h7.593V145.337z"/>
	<path fill="#681519" d="M340.766,123.943c0-4.991,3.952-8.988,8.943-8.988c4.968,0,8.943,3.997,8.943,8.988
		c0,4.945-3.975,8.943-8.943,8.943C344.718,132.886,340.766,128.888,340.766,123.943z M356.529,123.943
		c0-4.02-2.98-6.865-6.82-6.865c-3.907,0-6.82,2.846-6.82,6.865c0,3.975,2.913,6.82,6.82,6.82
		C353.548,130.763,356.529,127.917,356.529,123.943z M354,128.482h-2.258l-2.078-3.93h-1.445v3.93h-2.077v-9.304h4.517
		c2.145,0,3.613,0.384,3.613,2.845c0,1.717-0.881,2.417-2.529,2.529L354,128.482z M350.703,123.153c1.039,0,1.626-0.227,1.626-1.4
		c0-0.948-1.197-0.948-2.1-0.948h-2.01v2.349H350.703z"/>
	<path fill="#681519" d="M382.89,116.125v19.72c0,6.16-3.215,10.267-9.685,10.267c-3.254,0-5.773-1.627-7.516-4.3l4.378-4.61
		c0.852,1.162,2.053,2.479,3.061,2.479c2.247,0,2.169-2.673,2.169-4.301v-19.255H382.89z"/>
	<path fill="#681519" d="M412.84,116.125v16.427c0,3.758-0.156,7.478-3.061,10.306c-2.441,2.402-6.277,3.254-9.686,3.254
		c-3.41,0-7.245-0.852-9.686-3.254c-2.906-2.828-3.061-6.548-3.061-10.306v-16.427h7.593v15.381c0,3.797,0.271,7.942,5.153,7.942
		c4.881,0,5.152-4.146,5.152-7.942v-15.381H412.84z"/>
	<path fill="#681519" d="M446.588,129.027c-0.077,4.262-0.387,7.903-2.982,11.545c-2.867,3.991-7.168,5.734-12.049,5.734
		c-9.182,0-15.574-6.237-15.574-15.42c0-9.491,6.431-15.729,15.846-15.729c6.004,0,10.653,2.712,13.172,8.174l-7.207,3.022
		c-1.045-2.79-3.254-4.649-6.314-4.649c-4.998,0-7.594,4.766-7.594,9.221c0,4.533,2.713,9.144,7.71,9.144
		c3.294,0,5.812-1.705,6.122-5.075h-6.199v-5.967H446.588z"/>
	<path fill="#681519" d="M480.725,130.189c0,9.453-6.781,16.117-16.156,16.117s-16.155-6.664-16.155-16.117
		c0-8.833,7.749-15.031,16.155-15.031C472.976,115.158,480.725,121.356,480.725,130.189z M456.317,130.228
		c0,5.036,3.719,8.717,8.252,8.717s8.252-3.681,8.252-8.717c0-4.029-3.719-7.71-8.252-7.71S456.317,126.199,456.317,130.228z"/>
	<path fill="#681519" d="M500.1,123.642c-1.395-1.162-3.177-1.938-5.036-1.938c-1.396,0-3.255,0.813-3.255,2.44
		c0,1.705,2.054,2.363,3.371,2.79l1.938,0.581c4.067,1.201,7.205,3.254,7.205,7.98c0,2.906-0.697,5.889-3.021,7.865
		c-2.285,1.937-5.346,2.75-8.291,2.75c-3.68,0-7.283-1.239-10.267-3.331l3.255-6.121c1.898,1.665,4.145,3.021,6.74,3.021
		c1.783,0,3.682-0.892,3.682-2.944c0-2.131-2.984-2.867-4.611-3.332c-4.766-1.355-7.902-2.596-7.902-8.252
		c0-5.928,4.223-9.802,10.072-9.802c2.944,0,6.547,0.93,9.143,2.402L500.1,123.642z"/>
	<path fill="#681519" d="M538.575,130.189c0,9.453-6.78,16.117-16.156,16.117c-9.375,0-16.154-6.664-16.154-16.117
		c0-8.833,7.748-15.031,16.154-15.031C530.827,115.158,538.575,121.356,538.575,130.189z M514.167,130.228
		c0,5.036,3.72,8.717,8.252,8.717c4.533,0,8.253-3.681,8.253-8.717c0-4.029-3.72-7.71-8.253-7.71
		C517.886,122.518,514.167,126.199,514.167,130.228z"/>
	<path fill="#681519" d="M562.446,140.262l-2.016,5.075h-8.058l11.235-29.212h8.291l11.002,29.212h-8.097l-1.898-5.075H562.446z
		 M567.752,125.153h-0.077l-3.138,9.298h6.314L567.752,125.153z"/>
	<path fill="#681519" d="M592.668,138.906h9.104v6.432h-16.697v-29.212h7.594V138.906z"/>
	<path fill="#681519" d="M633.196,123.642c-1.395-1.162-3.177-1.938-5.036-1.938c-1.396,0-3.255,0.813-3.255,2.44
		c0,1.705,2.054,2.363,3.371,2.79l1.938,0.581c4.067,1.201,7.205,3.254,7.205,7.98c0,2.906-0.697,5.889-3.021,7.865
		c-2.285,1.937-5.346,2.75-8.291,2.75c-3.68,0-7.283-1.239-10.267-3.331l3.255-6.121c1.898,1.665,4.145,3.021,6.74,3.021
		c1.783,0,3.682-0.892,3.682-2.944c0-2.131-2.984-2.867-4.611-3.332c-4.766-1.355-7.902-2.596-7.902-8.252
		c0-5.928,4.223-9.802,10.072-9.802c2.944,0,6.547,0.93,9.143,2.402L633.196,123.642z"/>
	<path fill="#681519" d="M648.27,140.262l-2.016,5.075h-8.058l11.235-29.212h8.291l11.002,29.212h-8.097l-1.898-5.075H648.27z
		 M653.577,125.153H653.5l-3.138,9.298h6.314L653.577,125.153z"/>
	<path fill="#681519" d="M695.19,145.337h-9.453l-7.167-11.235h-0.077v11.235h-7.594v-29.212h11.352
		c5.772,0,10.15,2.751,10.15,8.988c0,4.029-2.247,7.517-6.393,8.252L695.19,145.337z M678.493,129.22h0.736
		c2.479,0,5.269-0.465,5.269-3.642s-2.79-3.642-5.269-3.642h-0.736V129.22z"/>
	<path fill="#681519" d="M708.676,145.337h-7.594v-22.78h-6.276v-6.432h20.146v6.432h-6.275V145.337z"/>
	<path fill="#681519" d="M725.104,122.557v4.882h8.562v6.431h-8.562v5.036h9.027v6.432h-16.62v-29.212h16.62v6.432H725.104z
		 M723.942,113.181l-3.138-2.285l5.463-6.664l4.3,3.1L723.942,113.181z"/>
	<path fill="#681519" d="M738.628,116.125h7.593l13.909,17.86h0.077v-17.86h7.594v29.212h-7.594l-13.908-17.898h-0.078v17.898
		h-7.593V116.125z"/>
	<path fill="#681519" d="M770.182,123.943c0-4.991,3.951-8.988,8.942-8.988c4.968,0,8.942,3.997,8.942,8.988
		c0,4.945-3.975,8.943-8.942,8.943C774.133,132.886,770.182,128.888,770.182,123.943z M785.945,123.943
		c0-4.02-2.981-6.865-6.82-6.865c-3.907,0-6.82,2.846-6.82,6.865c0,3.975,2.913,6.82,6.82,6.82
		C782.963,130.763,785.945,127.917,785.945,123.943z M783.416,128.482h-2.259l-2.077-3.93h-1.445v3.93h-2.078v-9.304h4.517
		c2.146,0,3.613,0.384,3.613,2.845c0,1.717-0.881,2.417-2.529,2.529L783.416,128.482z M780.118,123.153
		c1.039,0,1.627-0.227,1.627-1.4c0-0.948-1.197-0.948-2.101-0.948h-2.01v2.349H780.118z"/>
	<path fill="#681519" d="M46.849,186.364v-11.338l-8.483-15.381h3.964l3.766,7.373c0.991,2.023,1.823,3.648,2.656,5.512h0.08
		c0.713-1.744,1.665-3.488,2.695-5.512l3.846-7.373h3.885l-8.919,15.342v11.377H46.849z"/>
	<path fill="#681519" d="M97.711,185.532c-1.229,0.635-3.806,1.27-7.056,1.27c-7.532,0-13.161-4.758-13.161-13.559
		c0-8.404,5.669-14.033,13.954-14.033c3.29,0,5.431,0.713,6.343,1.189l-0.872,2.814c-1.269-0.635-3.132-1.109-5.352-1.109
		c-6.263,0-10.426,4.004-10.426,11.02c0,6.58,3.766,10.744,10.228,10.744c2.141,0,4.282-0.438,5.669-1.111L97.711,185.532z"/>
	<path fill="#681519" d="M110.715,177.96l-2.775,8.404h-3.568l9.118-26.719h4.123l9.118,26.719h-3.687l-2.854-8.404H110.715z
		 M119.516,175.265l-2.656-7.689c-0.595-1.746-0.991-3.33-1.388-4.877h-0.079c-0.396,1.547-0.793,3.211-1.348,4.836l-2.616,7.73
		H119.516z"/>
	<path fill="#681519" d="M157.178,174.63c-0.198-3.727-0.436-8.244-0.436-11.535h-0.08c-0.951,3.092-2.021,6.461-3.37,10.148
		l-4.717,12.963h-2.616l-4.361-12.725c-1.269-3.807-2.299-7.215-3.052-10.387h-0.08c-0.079,3.33-0.277,7.77-0.515,11.812
		l-0.714,11.457h-3.29l1.863-26.719h4.4l4.559,12.924c1.11,3.291,1.982,6.225,2.696,8.998h0.079
		c0.714-2.695,1.665-5.629,2.854-8.998l4.757-12.924h4.4l1.665,26.719h-3.409L157.178,174.63z"/>
	<path fill="#681519" d="M170.697,160.042c1.506-0.357,3.925-0.594,6.303-0.594c3.449,0,5.669,0.594,7.294,1.941
		c1.387,1.031,2.259,2.617,2.259,4.719c0,2.615-1.744,4.875-4.519,5.865v0.119c2.537,0.596,5.51,2.697,5.51,6.66
		c0,2.299-0.912,4.084-2.299,5.352c-1.824,1.705-4.836,2.498-9.197,2.498c-2.379,0-4.202-0.158-5.352-0.316V160.042z
		 M174.146,170.983h3.131c3.607,0,5.749-1.941,5.749-4.52c0-3.092-2.339-4.359-5.828-4.359c-1.586,0-2.498,0.117-3.052,0.236
		V170.983z M174.146,183.749c0.713,0.119,1.665,0.158,2.894,0.158c3.568,0,6.858-1.309,6.858-5.193c0-3.607-3.132-5.154-6.898-5.154
		h-2.854V183.749z"/>
	<path fill="#681519" d="M199.796,159.646v26.719h-3.489v-26.719H199.796z"/>
	<path fill="#681519" d="M214.306,177.96l-2.775,8.404h-3.568l9.118-26.719h4.123l9.118,26.719h-3.687l-2.854-8.404H214.306z
		 M223.106,175.265l-2.656-7.689c-0.595-1.746-0.991-3.33-1.388-4.877h-0.079c-0.396,1.547-0.793,3.211-1.348,4.836l-2.616,7.73
		H223.106z"/>
	<path fill="#681519" d="M250.977,159.964c1.665-0.279,3.845-0.516,6.621-0.516c3.409,0,5.906,0.793,7.492,2.219
		c1.427,1.27,2.339,3.211,2.339,5.59c0,2.418-0.713,4.322-2.062,5.709c-1.863,1.941-4.796,2.934-8.166,2.934
		c-1.031,0-1.982-0.039-2.775-0.238v10.703h-3.449V159.964z M254.426,172.847c0.753,0.197,1.705,0.277,2.854,0.277
		c4.163,0,6.7-2.061,6.7-5.668c0-3.568-2.537-5.273-6.303-5.273c-1.506,0-2.656,0.119-3.25,0.277V172.847z"/>
	<path fill="#681519" d="M277.221,177.96l-2.775,8.404h-3.568l9.118-26.719h4.123l9.118,26.719h-3.687l-2.854-8.404H277.221z
		 M286.021,175.265l-2.656-7.689c-0.595-1.746-0.991-3.33-1.388-4.877h-0.079c-0.396,1.547-0.793,3.211-1.348,4.836l-2.616,7.73
		H286.021z"/>
	<path fill="#681519" d="M301.325,160.003c1.745-0.318,4.282-0.555,6.621-0.555c3.687,0,6.104,0.713,7.73,2.18
		c1.308,1.189,2.101,3.014,2.101,5.113c0,3.488-2.22,5.828-4.995,6.779v0.119c2.022,0.713,3.251,2.617,3.885,5.391
		c0.872,3.727,1.506,6.305,2.062,7.334h-3.568c-0.436-0.793-1.031-3.053-1.745-6.383c-0.792-3.686-2.259-5.074-5.391-5.191h-3.25
		v11.574h-3.449V160.003z M304.774,172.173h3.528c3.687,0,6.026-2.021,6.026-5.074c0-3.449-2.498-4.955-6.145-4.955
		c-1.665,0-2.815,0.119-3.409,0.277V172.173z"/>
	<path fill="#681519" d="M331.335,177.96l-2.775,8.404h-3.568l9.118-26.719h4.123l9.118,26.719h-3.687l-2.854-8.404H331.335z
		 M340.136,175.265l-2.656-7.689c-0.595-1.746-0.991-3.33-1.388-4.877h-0.079c-0.396,1.547-0.793,3.211-1.348,4.836l-2.616,7.73
		H340.136z"/>
	<path fill="#681519" d="M367.57,182.163c1.546,0.99,3.766,1.744,6.145,1.744c3.528,0,5.59-1.863,5.59-4.559
		c0-2.459-1.427-3.926-5.035-5.273c-4.361-1.586-7.057-3.885-7.057-7.611c0-4.162,3.449-7.254,8.642-7.254
		c2.696,0,4.718,0.635,5.867,1.309l-0.951,2.814c-0.833-0.516-2.617-1.27-5.035-1.27c-3.647,0-5.035,2.182-5.035,4.004
		c0,2.498,1.625,3.727,5.312,5.154c4.52,1.744,6.779,3.924,6.779,7.85c0,4.121-3.013,7.73-9.316,7.73
		c-2.577,0-5.391-0.793-6.818-1.746L367.57,182.163z"/>
	<path fill="#681519" d="M395.163,159.646v26.719h-3.489v-26.719H395.163z"/>
	<path fill="#681519" d="M419.147,173.837H408.8v9.635h11.575v2.893h-15.064v-26.719h14.469v2.895H408.8v8.443h10.347V173.837z"/>
	<path fill="#681519" d="M451.536,174.63c-0.198-3.727-0.436-8.244-0.436-11.535h-0.08c-0.951,3.092-2.021,6.461-3.369,10.148
		l-4.718,12.963h-2.616l-4.361-12.725c-1.268-3.807-2.299-7.215-3.052-10.387h-0.079c-0.08,3.33-0.277,7.77-0.516,11.812
		l-0.714,11.457h-3.29l1.863-26.719h4.4l4.559,12.924c1.109,3.291,1.982,6.225,2.695,8.998h0.08
		c0.713-2.695,1.664-5.629,2.854-8.998l4.758-12.924h4.4l1.664,26.719h-3.408L451.536,174.63z"/>
	<path fill="#681519" d="M465.055,159.964c1.664-0.279,3.845-0.516,6.62-0.516c3.409,0,5.906,0.793,7.492,2.219
		c1.427,1.27,2.339,3.211,2.339,5.59c0,2.418-0.713,4.322-2.062,5.709c-1.863,1.941-4.796,2.934-8.166,2.934
		c-1.03,0-1.982-0.039-2.774-0.238v10.703h-3.449V159.964z M468.504,172.847c0.752,0.197,1.704,0.277,2.854,0.277
		c4.162,0,6.699-2.061,6.699-5.668c0-3.568-2.537-5.273-6.303-5.273c-1.506,0-2.656,0.119-3.25,0.277V172.847z"/>
	<path fill="#681519" d="M490.308,160.003c1.744-0.318,4.281-0.555,6.62-0.555c3.688,0,6.105,0.713,7.73,2.18
		c1.309,1.189,2.102,3.014,2.102,5.113c0,3.488-2.221,5.828-4.996,6.779v0.119c2.022,0.713,3.252,2.617,3.886,5.391
		c0.872,3.727,1.507,6.305,2.062,7.334h-3.568c-0.436-0.793-1.03-3.053-1.744-6.383c-0.793-3.686-2.26-5.074-5.391-5.191h-3.251
		v11.574h-3.449V160.003z M493.757,172.173h3.528c3.687,0,6.025-2.021,6.025-5.074c0-3.449-2.498-4.955-6.145-4.955
		c-1.665,0-2.814,0.119-3.409,0.277V172.173z"/>
	<path fill="#681519" d="M529.595,173.837h-10.347v9.635h11.575v2.893H515.76v-26.719h14.469v2.895h-10.98v8.443h10.347V173.837z"/>
	<path fill="#681519" d="M551.995,159.646h3.488v23.826H566.9v2.893h-14.905V159.646z"/>
	<path fill="#681519" d="M579.229,177.96l-2.774,8.404h-3.567l9.117-26.719h4.123l9.117,26.719h-3.687l-2.854-8.404H579.229z
		 M588.03,175.265l-2.656-7.689c-0.594-1.746-0.99-3.33-1.387-4.877h-0.08c-0.396,1.547-0.793,3.211-1.348,4.836l-2.616,7.73H588.03
		z"/>
	<path fill="#681519" d="M615.861,159.646h14.39v2.895h-10.9v8.879h10.068v2.855H619.35v12.09h-3.489V159.646z"/>
	<path fill="#681519" d="M662.204,172.728c0,9.158-5.59,14.074-12.408,14.074c-7.096,0-12.012-5.512-12.012-13.598
		c0-8.484,5.233-14.033,12.369-14.033C657.487,159.171,662.204,164.759,662.204,172.728z M641.431,173.124
		c0,5.748,3.093,10.861,8.562,10.861c5.471,0,8.563-5.033,8.563-11.1c0-5.352-2.775-10.9-8.523-10.9
		S641.431,167.296,641.431,173.124z"/>
	<path fill="#681519" d="M670.848,160.003c1.744-0.318,4.281-0.555,6.62-0.555c3.687,0,6.104,0.713,7.729,2.18
		c1.309,1.189,2.102,3.014,2.102,5.113c0,3.488-2.22,5.828-4.995,6.779v0.119c2.022,0.713,3.251,2.617,3.886,5.391
		c0.871,3.727,1.506,6.305,2.061,7.334h-3.567c-0.437-0.793-1.03-3.053-1.745-6.383c-0.792-3.686-2.259-5.074-5.391-5.191h-3.25
		v11.574h-3.449V160.003z M674.297,172.173h3.527c3.688,0,6.025-2.021,6.025-5.074c0-3.449-2.497-4.955-6.145-4.955
		c-1.664,0-2.814,0.119-3.408,0.277V172.173z"/>
	<path fill="#681519" d="M718.856,174.63c-0.198-3.727-0.436-8.244-0.436-11.535h-0.08c-0.951,3.092-2.021,6.461-3.369,10.148
		l-4.718,12.963h-2.616l-4.361-12.725c-1.268-3.807-2.299-7.215-3.052-10.387h-0.079c-0.08,3.33-0.277,7.77-0.516,11.812
		l-0.714,11.457h-3.29l1.863-26.719h4.4l4.559,12.924c1.109,3.291,1.982,6.225,2.695,8.998h0.08
		c0.713-2.695,1.664-5.629,2.854-8.998l4.758-12.924h4.4l1.664,26.719h-3.408L718.856,174.63z"/>
	<path fill="#681519" d="M736.3,177.96l-2.774,8.404h-3.568l9.117-26.719h4.123l9.117,26.719h-3.686l-2.854-8.404H736.3z
		 M745.1,175.265l-2.655-7.689c-0.595-1.746-0.991-3.33-1.388-4.877h-0.079c-0.396,1.547-0.793,3.211-1.349,4.836l-2.615,7.73H745.1
		z"/>
	<path fill="#681519" d="M53.945,222.335H40.727v12.307h14.788v3.697H36.271v-34.133h18.485v3.697H40.727v10.787h13.218V222.335z"/>
	<path fill="#681519" d="M66.357,238.339v-34.133h4.862l10.888,17.27c2.481,4,4.507,7.596,6.077,11.09l0.152-0.051
		c-0.405-4.557-0.507-8.711-0.507-14.027v-14.281h4.153v34.133h-4.457l-10.838-17.32c-2.38-3.797-4.659-7.697-6.331-11.395
		l-0.152,0.051c0.253,4.305,0.304,8.406,0.304,14.078v14.586H66.357z"/>
	<path fill="#681519" d="M148.811,243.353c-4.608-1.215-9.116-2.582-13.066-3.949c-0.76-0.254-1.418-0.508-2.077-0.508
		c-8.153-0.303-15.041-6.279-15.041-17.318c0-10.939,6.634-17.98,15.852-17.98c9.318,0,15.345,7.191,15.345,17.271
		c0,8.811-4.052,14.383-9.724,16.408v0.201c3.393,0.861,7.09,1.672,9.977,2.178L148.811,243.353z M145.165,221.12
		c0-6.887-3.545-13.928-10.787-13.928c-7.444,0-11.091,6.889-11.091,14.283c0,7.293,3.95,13.824,10.939,13.824
		S145.165,228.868,145.165,221.12z"/>
	<path fill="#681519" d="M165.073,204.206v20.258c0,7.596,3.393,10.836,7.951,10.836c5.014,0,8.306-3.342,8.306-10.836v-20.258
		h4.457v19.953c0,10.482-5.52,14.736-12.914,14.736c-6.989,0-12.256-3.949-12.256-14.584v-20.105H165.073z"/>
	<path fill="#681519" d="M216.178,222.335h-13.218v12.307h14.788v3.697h-19.245v-34.133h18.485v3.697h-14.028v10.787h13.218V222.335
		z"/>
	<path fill="#681519" d="M244.442,204.61c2.127-0.354,4.912-0.658,8.458-0.658c4.355,0,7.546,1.014,9.571,2.836
		c1.823,1.621,2.988,4.102,2.988,7.141c0,3.09-0.912,5.52-2.633,7.293c-2.38,2.482-6.128,3.748-10.433,3.748
		c-1.316,0-2.532-0.051-3.545-0.305v13.674h-4.406V204.61z M248.848,221.069c0.962,0.254,2.178,0.355,3.646,0.355
		c5.317,0,8.559-2.635,8.559-7.242c0-4.559-3.241-6.736-8.052-6.736c-1.924,0-3.393,0.152-4.153,0.355V221.069z"/>
	<path fill="#681519" d="M276.504,204.661c2.228-0.404,5.469-0.709,8.458-0.709c4.709,0,7.799,0.912,9.875,2.785
		c1.671,1.52,2.684,3.85,2.684,6.533c0,4.457-2.836,7.445-6.381,8.66v0.152c2.583,0.912,4.153,3.342,4.963,6.887
		c1.114,4.762,1.924,8.053,2.633,9.369h-4.558c-0.557-1.012-1.316-3.898-2.228-8.152c-1.013-4.711-2.887-6.482-6.888-6.635h-4.153
		v14.787h-4.406V204.661z M280.91,220.208h4.507c4.71,0,7.698-2.582,7.698-6.482c0-4.404-3.19-6.33-7.85-6.33
		c-2.127,0-3.596,0.152-4.355,0.355V220.208z"/>
	<path fill="#681519" d="M326.494,222.335h-13.218v12.307h14.788v3.697h-19.245v-34.133h18.485v3.697h-14.028v10.787h13.218V222.335
		z"/>
	<path fill="#681519" d="M338.906,204.61c2.127-0.354,4.912-0.658,8.458-0.658c4.355,0,7.546,1.014,9.572,2.836
		c1.823,1.621,2.988,4.102,2.988,7.141c0,3.09-0.912,5.52-2.633,7.293c-2.38,2.482-6.128,3.748-10.433,3.748
		c-1.316,0-2.532-0.051-3.545-0.305v13.674h-4.406V204.61z M343.312,221.069c0.962,0.254,2.178,0.355,3.646,0.355
		c5.317,0,8.559-2.635,8.559-7.242c0-4.559-3.241-6.736-8.052-6.736c-1.924,0-3.393,0.152-4.153,0.355V221.069z"/>
	<path fill="#681519" d="M372.233,227.603l-3.545,10.736h-4.558l11.648-34.133h5.267l11.648,34.133h-4.71l-3.646-10.736H372.233z
		 M383.476,224.159l-3.394-9.824c-0.759-2.229-1.266-4.256-1.772-6.23h-0.101c-0.506,1.975-1.013,4.104-1.722,6.18l-3.342,9.875
		H383.476z"/>
	<path fill="#681519" d="M402.827,204.661c2.228-0.404,5.469-0.709,8.458-0.709c4.71,0,7.799,0.912,9.876,2.785
		c1.671,1.52,2.684,3.85,2.684,6.533c0,4.457-2.836,7.445-6.381,8.66v0.152c2.582,0.912,4.152,3.342,4.963,6.887
		c1.114,4.762,1.924,8.053,2.633,9.369h-4.558c-0.557-1.012-1.316-3.898-2.228-8.152c-1.014-4.711-2.887-6.482-6.889-6.635h-4.152
		v14.787h-4.406V204.661z M407.233,220.208h4.508c4.709,0,7.697-2.582,7.697-6.482c0-4.404-3.19-6.33-7.85-6.33
		c-2.127,0-3.596,0.152-4.355,0.355V220.208z"/>
	<path fill="#681519" d="M440.965,227.603l-3.545,10.736h-4.559l11.648-34.133h5.268l11.647,34.133h-4.71l-3.646-10.736H440.965z
		 M452.208,224.159l-3.394-9.824c-0.76-2.229-1.266-4.256-1.772-6.23h-0.101c-0.507,1.975-1.014,4.104-1.723,6.18l-3.342,9.875
		H452.208z"/>
	<path fill="#681519" d="M471.002,232.972c1.975,1.266,4.811,2.229,7.85,2.229c4.508,0,7.141-2.381,7.141-5.824
		c0-3.141-1.822-5.014-6.432-6.736c-5.57-2.025-9.015-4.963-9.015-9.723c0-5.318,4.406-9.27,11.04-9.27
		c3.444,0,6.027,0.811,7.496,1.672l-1.216,3.596c-1.063-0.658-3.343-1.621-6.432-1.621c-4.659,0-6.432,2.785-6.432,5.115
		c0,3.191,2.076,4.762,6.786,6.584c5.773,2.229,8.66,5.014,8.66,10.027c0,5.268-3.85,9.875-11.901,9.875
		c-3.292,0-6.888-1.012-8.711-2.227L471.002,232.972z"/>
	<path fill="#681519" d="M521.906,207.952h-10.382v-3.746h25.271v3.746h-10.434v30.387h-4.456V207.952z"/>
	<path fill="#681519" d="M550.118,204.206v20.258c0,7.596,3.394,10.836,7.951,10.836c5.014,0,8.307-3.342,8.307-10.836v-20.258
		h4.456v19.953c0,10.482-5.521,14.736-12.914,14.736c-6.989,0-12.256-3.949-12.256-14.584v-20.105H550.118z"/>
	<path fill="#681519" d="M599.452,204.61c2.127-0.354,4.912-0.658,8.457-0.658c4.355,0,7.547,1.014,9.572,2.836
		c1.822,1.621,2.988,4.102,2.988,7.141c0,3.09-0.912,5.52-2.634,7.293c-2.38,2.482-6.128,3.748-10.433,3.748
		c-1.316,0-2.532-0.051-3.545-0.305v13.674h-4.406V204.61z M603.858,221.069c0.962,0.254,2.178,0.355,3.646,0.355
		c5.316,0,8.559-2.635,8.559-7.242c0-4.559-3.242-6.736-8.053-6.736c-1.924,0-3.393,0.152-4.152,0.355V221.069z"/>
	<path fill="#681519" d="M660.684,220.917c0,11.699-7.141,17.979-15.852,17.979c-9.064,0-15.345-7.039-15.345-17.369
		c0-10.838,6.685-17.93,15.801-17.93C654.658,203.597,660.684,210.739,660.684,220.917z M634.147,221.425
		c0,7.344,3.95,13.875,10.939,13.875c6.988,0,10.938-6.432,10.938-14.18c0-6.836-3.545-13.928-10.888-13.928
		C637.793,207.192,634.147,213.979,634.147,221.425z"/>
	<path fill="#681519" d="M671.477,204.206h4.457v30.436h14.585v3.697h-19.042V204.206z"/>
	<path fill="#681519" d="M700.499,204.206h4.457v30.436h14.586v3.697h-19.043V204.206z"/>
	<path fill="#681519" d="M756.768,220.917c0,11.699-7.141,17.979-15.852,17.979c-9.064,0-15.345-7.039-15.345-17.369
		c0-10.838,6.685-17.93,15.801-17.93C750.742,203.597,756.768,210.739,756.768,220.917z M730.231,221.425
		c0,7.344,3.95,13.875,10.939,13.875c6.988,0,10.938-6.432,10.938-14.18c0-6.836-3.545-13.928-10.888-13.928
		C733.877,207.192,730.231,213.979,730.231,221.425z"/>
</g>
</svg>
